G04 #@! TF.GenerationSoftware,KiCad,Pcbnew,5.0.1*
G04 #@! TF.CreationDate,2019-02-12T16:04:37-06:00*
G04 #@! TF.ProjectId,EFM,45464D2E6B696361645F706362000000,rev?*
G04 #@! TF.SameCoordinates,Original*
G04 #@! TF.FileFunction,Legend,Top*
G04 #@! TF.FilePolarity,Positive*
%FSLAX46Y46*%
G04 Gerber Fmt 4.6, Leading zero omitted, Abs format (unit mm)*
G04 Created by KiCad (PCBNEW 5.0.1) date Tue 12 Feb 2019 04:04:37 PM CST*
%MOMM*%
%LPD*%
G01*
G04 APERTURE LIST*
%ADD10C,0.120000*%
%ADD11C,0.127000*%
%ADD12C,0.150000*%
%ADD13C,0.050000*%
G04 APERTURE END LIST*
D10*
G04 #@! TO.C,D1*
X231840000Y-53337500D02*
X231840000Y-56022500D01*
X231840000Y-56022500D02*
X233760000Y-56022500D01*
X233760000Y-56022500D02*
X233760000Y-53337500D01*
G04 #@! TO.C,J1*
X203030000Y-52400000D02*
X197010000Y-52400000D01*
X197010000Y-52400000D02*
X197010000Y-67860000D01*
X197010000Y-67860000D02*
X203030000Y-67860000D01*
X203030000Y-67860000D02*
X203030000Y-52400000D01*
X202000000Y-52110000D02*
X198000000Y-52110000D01*
X197010000Y-53780000D02*
X198010000Y-53780000D01*
X198010000Y-53780000D02*
X198010000Y-66480000D01*
X198010000Y-66480000D02*
X197010000Y-66480000D01*
X198010000Y-53780000D02*
X198540000Y-54030000D01*
X198540000Y-54030000D02*
X198540000Y-66230000D01*
X198540000Y-66230000D02*
X198010000Y-66480000D01*
X197010000Y-54030000D02*
X198010000Y-54030000D01*
X197010000Y-66230000D02*
X198010000Y-66230000D01*
X203030000Y-52980000D02*
X202430000Y-52980000D01*
X202430000Y-52980000D02*
X202430000Y-54580000D01*
X202430000Y-54580000D02*
X203030000Y-54580000D01*
X203030000Y-55520000D02*
X202430000Y-55520000D01*
X202430000Y-55520000D02*
X202430000Y-57120000D01*
X202430000Y-57120000D02*
X203030000Y-57120000D01*
X203030000Y-58060000D02*
X202430000Y-58060000D01*
X202430000Y-58060000D02*
X202430000Y-59660000D01*
X202430000Y-59660000D02*
X203030000Y-59660000D01*
X203030000Y-60600000D02*
X202430000Y-60600000D01*
X202430000Y-60600000D02*
X202430000Y-62200000D01*
X202430000Y-62200000D02*
X203030000Y-62200000D01*
X203030000Y-63140000D02*
X202430000Y-63140000D01*
X202430000Y-63140000D02*
X202430000Y-64740000D01*
X202430000Y-64740000D02*
X203030000Y-64740000D01*
X203030000Y-65680000D02*
X202430000Y-65680000D01*
X202430000Y-65680000D02*
X202430000Y-67280000D01*
X202430000Y-67280000D02*
X203030000Y-67280000D01*
G04 #@! TO.C,J2*
X205170000Y-67060000D02*
X211190000Y-67060000D01*
X211190000Y-67060000D02*
X211190000Y-56680000D01*
X211190000Y-56680000D02*
X205170000Y-56680000D01*
X205170000Y-56680000D02*
X205170000Y-67060000D01*
X206200000Y-67350000D02*
X210200000Y-67350000D01*
X211190000Y-65680000D02*
X210190000Y-65680000D01*
X210190000Y-65680000D02*
X210190000Y-58060000D01*
X210190000Y-58060000D02*
X211190000Y-58060000D01*
X210190000Y-65680000D02*
X209660000Y-65430000D01*
X209660000Y-65430000D02*
X209660000Y-58310000D01*
X209660000Y-58310000D02*
X210190000Y-58060000D01*
X211190000Y-65430000D02*
X210190000Y-65430000D01*
X211190000Y-58310000D02*
X210190000Y-58310000D01*
X205170000Y-66480000D02*
X205770000Y-66480000D01*
X205770000Y-66480000D02*
X205770000Y-64880000D01*
X205770000Y-64880000D02*
X205170000Y-64880000D01*
X205170000Y-63940000D02*
X205770000Y-63940000D01*
X205770000Y-63940000D02*
X205770000Y-62340000D01*
X205770000Y-62340000D02*
X205170000Y-62340000D01*
X205170000Y-61400000D02*
X205770000Y-61400000D01*
X205770000Y-61400000D02*
X205770000Y-59800000D01*
X205770000Y-59800000D02*
X205170000Y-59800000D01*
X205170000Y-58860000D02*
X205770000Y-58860000D01*
X205770000Y-58860000D02*
X205770000Y-57260000D01*
X205770000Y-57260000D02*
X205170000Y-57260000D01*
G04 #@! TO.C,J3*
X237570000Y-67120000D02*
X243590000Y-67120000D01*
X243590000Y-67120000D02*
X243590000Y-61820000D01*
X243590000Y-61820000D02*
X237570000Y-61820000D01*
X237570000Y-61820000D02*
X237570000Y-67120000D01*
X238600000Y-67410000D02*
X242600000Y-67410000D01*
X243590000Y-65740000D02*
X242590000Y-65740000D01*
X242590000Y-65740000D02*
X242590000Y-63200000D01*
X242590000Y-63200000D02*
X243590000Y-63200000D01*
X242590000Y-65740000D02*
X242060000Y-65490000D01*
X242060000Y-65490000D02*
X242060000Y-63450000D01*
X242060000Y-63450000D02*
X242590000Y-63200000D01*
X243590000Y-65490000D02*
X242590000Y-65490000D01*
X243590000Y-63450000D02*
X242590000Y-63450000D01*
X237570000Y-66540000D02*
X238170000Y-66540000D01*
X238170000Y-66540000D02*
X238170000Y-64940000D01*
X238170000Y-64940000D02*
X237570000Y-64940000D01*
X237570000Y-64000000D02*
X238170000Y-64000000D01*
X238170000Y-64000000D02*
X238170000Y-62400000D01*
X238170000Y-62400000D02*
X237570000Y-62400000D01*
D11*
G04 #@! TO.C,M1*
X198098100Y-33245700D02*
X198098100Y-51254300D01*
X198098100Y-33245700D02*
X241100300Y-33245700D01*
X241100300Y-33245700D02*
X241100300Y-51254300D01*
X198098100Y-51254300D02*
X241100300Y-51254300D01*
D10*
G04 #@! TO.C,R1*
X229661252Y-53310000D02*
X229138748Y-53310000D01*
X229661252Y-51890000D02*
X229138748Y-51890000D01*
G04 #@! TO.C,R5*
X234313748Y-73890000D02*
X234836252Y-73890000D01*
X234313748Y-75310000D02*
X234836252Y-75310000D01*
D12*
G04 #@! TO.C,U2*
X233675000Y-66575000D02*
X233675000Y-66525000D01*
X229525000Y-66575000D02*
X229525000Y-66430000D01*
X229525000Y-61425000D02*
X229525000Y-61570000D01*
X233675000Y-61425000D02*
X233675000Y-61570000D01*
X233675000Y-66575000D02*
X229525000Y-66575000D01*
X233675000Y-61425000D02*
X229525000Y-61425000D01*
X233675000Y-66525000D02*
X235075000Y-66525000D01*
G04 #@! TO.C,U3*
X233575000Y-73430000D02*
X234975000Y-73430000D01*
X233575000Y-68330000D02*
X229425000Y-68330000D01*
X233575000Y-73480000D02*
X229425000Y-73480000D01*
X233575000Y-68330000D02*
X233575000Y-68475000D01*
X229425000Y-68330000D02*
X229425000Y-68475000D01*
X229425000Y-73480000D02*
X229425000Y-73335000D01*
X233575000Y-73480000D02*
X233575000Y-73430000D01*
G04 #@! TO.C,U5*
X224775000Y-65675000D02*
X224775000Y-65100000D01*
X214425000Y-65675000D02*
X214425000Y-65000000D01*
X214425000Y-55325000D02*
X214425000Y-56000000D01*
X224775000Y-55325000D02*
X224775000Y-56000000D01*
X224775000Y-65675000D02*
X224100000Y-65675000D01*
X224775000Y-55325000D02*
X224100000Y-55325000D01*
X214425000Y-55325000D02*
X215100000Y-55325000D01*
X214425000Y-65675000D02*
X215100000Y-65675000D01*
X224775000Y-65100000D02*
X226050000Y-65100000D01*
D10*
G04 #@! TO.C,J4*
X238130000Y-60810000D02*
X243330000Y-60810000D01*
X238130000Y-55670000D02*
X238130000Y-60810000D01*
X243330000Y-53070000D02*
X243330000Y-60810000D01*
X238130000Y-55670000D02*
X240730000Y-55670000D01*
X240730000Y-55670000D02*
X240730000Y-53070000D01*
X240730000Y-53070000D02*
X243330000Y-53070000D01*
X238130000Y-54400000D02*
X238130000Y-53070000D01*
X238130000Y-53070000D02*
X239460000Y-53070000D01*
G04 #@! TO.C,D1*
D12*
X231602380Y-55075595D02*
X230602380Y-55075595D01*
X230602380Y-54837500D01*
X230650000Y-54694642D01*
X230745238Y-54599404D01*
X230840476Y-54551785D01*
X231030952Y-54504166D01*
X231173809Y-54504166D01*
X231364285Y-54551785D01*
X231459523Y-54599404D01*
X231554761Y-54694642D01*
X231602380Y-54837500D01*
X231602380Y-55075595D01*
X231602380Y-53551785D02*
X231602380Y-54123214D01*
X231602380Y-53837500D02*
X230602380Y-53837500D01*
X230745238Y-53932738D01*
X230840476Y-54027976D01*
X230888095Y-54123214D01*
G04 #@! TO.C,J1*
X203572380Y-60463333D02*
X204286666Y-60463333D01*
X204429523Y-60510952D01*
X204524761Y-60606190D01*
X204572380Y-60749047D01*
X204572380Y-60844285D01*
X204572380Y-59463333D02*
X204572380Y-60034761D01*
X204572380Y-59749047D02*
X203572380Y-59749047D01*
X203715238Y-59844285D01*
X203810476Y-59939523D01*
X203858095Y-60034761D01*
G04 #@! TO.C,J2*
X203532380Y-62203333D02*
X204246666Y-62203333D01*
X204389523Y-62250952D01*
X204484761Y-62346190D01*
X204532380Y-62489047D01*
X204532380Y-62584285D01*
X203627619Y-61774761D02*
X203580000Y-61727142D01*
X203532380Y-61631904D01*
X203532380Y-61393809D01*
X203580000Y-61298571D01*
X203627619Y-61250952D01*
X203722857Y-61203333D01*
X203818095Y-61203333D01*
X203960952Y-61250952D01*
X204532380Y-61822380D01*
X204532380Y-61203333D01*
G04 #@! TO.C,J3*
X235932380Y-64803333D02*
X236646666Y-64803333D01*
X236789523Y-64850952D01*
X236884761Y-64946190D01*
X236932380Y-65089047D01*
X236932380Y-65184285D01*
X235932380Y-64422380D02*
X235932380Y-63803333D01*
X236313333Y-64136666D01*
X236313333Y-63993809D01*
X236360952Y-63898571D01*
X236408571Y-63850952D01*
X236503809Y-63803333D01*
X236741904Y-63803333D01*
X236837142Y-63850952D01*
X236884761Y-63898571D01*
X236932380Y-63993809D01*
X236932380Y-64279523D01*
X236884761Y-64374761D01*
X236837142Y-64422380D01*
G04 #@! TO.C,M1*
D13*
X218789676Y-40797380D02*
X218789676Y-39797380D01*
X219123009Y-40511666D01*
X219456342Y-39797380D01*
X219456342Y-40797380D01*
X220456342Y-40797380D02*
X219884914Y-40797380D01*
X220170628Y-40797380D02*
X220170628Y-39797380D01*
X220075390Y-39940238D01*
X219980152Y-40035476D01*
X219884914Y-40083095D01*
G04 #@! TO.C,R1*
D12*
X229233333Y-54702380D02*
X228900000Y-54226190D01*
X228661904Y-54702380D02*
X228661904Y-53702380D01*
X229042857Y-53702380D01*
X229138095Y-53750000D01*
X229185714Y-53797619D01*
X229233333Y-53892857D01*
X229233333Y-54035714D01*
X229185714Y-54130952D01*
X229138095Y-54178571D01*
X229042857Y-54226190D01*
X228661904Y-54226190D01*
X230185714Y-54702380D02*
X229614285Y-54702380D01*
X229900000Y-54702380D02*
X229900000Y-53702380D01*
X229804761Y-53845238D01*
X229709523Y-53940476D01*
X229614285Y-53988095D01*
G04 #@! TO.C,R5*
X234408333Y-76852380D02*
X234075000Y-76376190D01*
X233836904Y-76852380D02*
X233836904Y-75852380D01*
X234217857Y-75852380D01*
X234313095Y-75900000D01*
X234360714Y-75947619D01*
X234408333Y-76042857D01*
X234408333Y-76185714D01*
X234360714Y-76280952D01*
X234313095Y-76328571D01*
X234217857Y-76376190D01*
X233836904Y-76376190D01*
X235313095Y-75852380D02*
X234836904Y-75852380D01*
X234789285Y-76328571D01*
X234836904Y-76280952D01*
X234932142Y-76233333D01*
X235170238Y-76233333D01*
X235265476Y-76280952D01*
X235313095Y-76328571D01*
X235360714Y-76423809D01*
X235360714Y-76661904D01*
X235313095Y-76757142D01*
X235265476Y-76804761D01*
X235170238Y-76852380D01*
X234932142Y-76852380D01*
X234836904Y-76804761D01*
X234789285Y-76757142D01*
G04 #@! TO.C,U2*
X230838095Y-66952380D02*
X230838095Y-67761904D01*
X230885714Y-67857142D01*
X230933333Y-67904761D01*
X231028571Y-67952380D01*
X231219047Y-67952380D01*
X231314285Y-67904761D01*
X231361904Y-67857142D01*
X231409523Y-67761904D01*
X231409523Y-66952380D01*
X231838095Y-67047619D02*
X231885714Y-67000000D01*
X231980952Y-66952380D01*
X232219047Y-66952380D01*
X232314285Y-67000000D01*
X232361904Y-67047619D01*
X232409523Y-67142857D01*
X232409523Y-67238095D01*
X232361904Y-67380952D01*
X231790476Y-67952380D01*
X232409523Y-67952380D01*
G04 #@! TO.C,U3*
X230738095Y-73857380D02*
X230738095Y-74666904D01*
X230785714Y-74762142D01*
X230833333Y-74809761D01*
X230928571Y-74857380D01*
X231119047Y-74857380D01*
X231214285Y-74809761D01*
X231261904Y-74762142D01*
X231309523Y-74666904D01*
X231309523Y-73857380D01*
X231690476Y-73857380D02*
X232309523Y-73857380D01*
X231976190Y-74238333D01*
X232119047Y-74238333D01*
X232214285Y-74285952D01*
X232261904Y-74333571D01*
X232309523Y-74428809D01*
X232309523Y-74666904D01*
X232261904Y-74762142D01*
X232214285Y-74809761D01*
X232119047Y-74857380D01*
X231833333Y-74857380D01*
X231738095Y-74809761D01*
X231690476Y-74762142D01*
G04 #@! TO.C,U5*
X218838095Y-67402380D02*
X218838095Y-68211904D01*
X218885714Y-68307142D01*
X218933333Y-68354761D01*
X219028571Y-68402380D01*
X219219047Y-68402380D01*
X219314285Y-68354761D01*
X219361904Y-68307142D01*
X219409523Y-68211904D01*
X219409523Y-67402380D01*
X220361904Y-67402380D02*
X219885714Y-67402380D01*
X219838095Y-67878571D01*
X219885714Y-67830952D01*
X219980952Y-67783333D01*
X220219047Y-67783333D01*
X220314285Y-67830952D01*
X220361904Y-67878571D01*
X220409523Y-67973809D01*
X220409523Y-68211904D01*
X220361904Y-68307142D01*
X220314285Y-68354761D01*
X220219047Y-68402380D01*
X219980952Y-68402380D01*
X219885714Y-68354761D01*
X219838095Y-68307142D01*
G04 #@! TO.C,J4*
X240396666Y-51522380D02*
X240396666Y-52236666D01*
X240349047Y-52379523D01*
X240253809Y-52474761D01*
X240110952Y-52522380D01*
X240015714Y-52522380D01*
X241301428Y-51855714D02*
X241301428Y-52522380D01*
X241063333Y-51474761D02*
X240825238Y-52189047D01*
X241444285Y-52189047D01*
G04 #@! TD*
M02*
