G04 #@! TF.GenerationSoftware,KiCad,Pcbnew,5.0.1*
G04 #@! TF.CreationDate,2019-02-12T16:04:37-06:00*
G04 #@! TF.ProjectId,EFM,45464D2E6B696361645F706362000000,rev?*
G04 #@! TF.SameCoordinates,Original*
G04 #@! TF.FileFunction,Legend,Bot*
G04 #@! TF.FilePolarity,Positive*
%FSLAX46Y46*%
G04 Gerber Fmt 4.6, Leading zero omitted, Abs format (unit mm)*
G04 Created by KiCad (PCBNEW 5.0.1) date Tue 12 Feb 2019 04:04:37 PM CST*
%MOMM*%
%LPD*%
G01*
G04 APERTURE LIST*
%ADD10C,0.300000*%
%ADD11C,0.120000*%
%ADD12C,0.152400*%
%ADD13C,0.150000*%
%ADD14C,0.125000*%
G04 APERTURE END LIST*
D10*
X191728571Y-87357142D02*
X191728571Y-87071428D01*
X191657142Y-86928571D01*
X191585714Y-86857142D01*
X191371428Y-86714285D01*
X191085714Y-86642857D01*
X190514285Y-86642857D01*
X190371428Y-86714285D01*
X190300000Y-86785714D01*
X190228571Y-86928571D01*
X190228571Y-87214285D01*
X190300000Y-87357142D01*
X190371428Y-87428571D01*
X190514285Y-87500000D01*
X190871428Y-87500000D01*
X191014285Y-87428571D01*
X191085714Y-87357142D01*
X191157142Y-87214285D01*
X191157142Y-86928571D01*
X191085714Y-86785714D01*
X191014285Y-86714285D01*
X190871428Y-86642857D01*
X191585714Y-86000000D02*
X191657142Y-85928571D01*
X191728571Y-86000000D01*
X191657142Y-86071428D01*
X191585714Y-86000000D01*
X191728571Y-86000000D01*
X190228571Y-85000000D02*
X190228571Y-84857142D01*
X190300000Y-84714285D01*
X190371428Y-84642857D01*
X190514285Y-84571428D01*
X190800000Y-84500000D01*
X191157142Y-84500000D01*
X191442857Y-84571428D01*
X191585714Y-84642857D01*
X191657142Y-84714285D01*
X191728571Y-84857142D01*
X191728571Y-85000000D01*
X191657142Y-85142857D01*
X191585714Y-85214285D01*
X191442857Y-85285714D01*
X191157142Y-85357142D01*
X190800000Y-85357142D01*
X190514285Y-85285714D01*
X190371428Y-85214285D01*
X190300000Y-85142857D01*
X190228571Y-85000000D01*
X190228571Y-83571428D02*
X190228571Y-83428571D01*
X190300000Y-83285714D01*
X190371428Y-83214285D01*
X190514285Y-83142857D01*
X190800000Y-83071428D01*
X191157142Y-83071428D01*
X191442857Y-83142857D01*
X191585714Y-83214285D01*
X191657142Y-83285714D01*
X191728571Y-83428571D01*
X191728571Y-83571428D01*
X191657142Y-83714285D01*
X191585714Y-83785714D01*
X191442857Y-83857142D01*
X191157142Y-83928571D01*
X190800000Y-83928571D01*
X190514285Y-83857142D01*
X190371428Y-83785714D01*
X190300000Y-83714285D01*
X190228571Y-83571428D01*
X190228571Y-82142857D02*
X190228571Y-82000000D01*
X190300000Y-81857142D01*
X190371428Y-81785714D01*
X190514285Y-81714285D01*
X190800000Y-81642857D01*
X191157142Y-81642857D01*
X191442857Y-81714285D01*
X191585714Y-81785714D01*
X191657142Y-81857142D01*
X191728571Y-82000000D01*
X191728571Y-82142857D01*
X191657142Y-82285714D01*
X191585714Y-82357142D01*
X191442857Y-82428571D01*
X191157142Y-82500000D01*
X190800000Y-82500000D01*
X190514285Y-82428571D01*
X190371428Y-82357142D01*
X190300000Y-82285714D01*
X190228571Y-82142857D01*
X191728571Y-79857142D02*
X190728571Y-79857142D01*
X190871428Y-79857142D02*
X190800000Y-79785714D01*
X190728571Y-79642857D01*
X190728571Y-79428571D01*
X190800000Y-79285714D01*
X190942857Y-79214285D01*
X191728571Y-79214285D01*
X190942857Y-79214285D02*
X190800000Y-79142857D01*
X190728571Y-79000000D01*
X190728571Y-78785714D01*
X190800000Y-78642857D01*
X190942857Y-78571428D01*
X191728571Y-78571428D01*
X191728571Y-77857142D02*
X190728571Y-77857142D01*
X190871428Y-77857142D02*
X190800000Y-77785714D01*
X190728571Y-77642857D01*
X190728571Y-77428571D01*
X190800000Y-77285714D01*
X190942857Y-77214285D01*
X191728571Y-77214285D01*
X190942857Y-77214285D02*
X190800000Y-77142857D01*
X190728571Y-77000000D01*
X190728571Y-76785714D01*
X190800000Y-76642857D01*
X190942857Y-76571428D01*
X191728571Y-76571428D01*
X193150000Y-86500000D02*
X193150000Y-77500000D01*
X195000000Y-86500000D02*
X192563579Y-86500000D01*
X195000000Y-77500000D02*
X192563579Y-77500000D01*
X193150000Y-77500000D02*
X193736421Y-78626504D01*
X193150000Y-77500000D02*
X192563579Y-78626504D01*
X193150000Y-86500000D02*
X193736421Y-85373496D01*
X193150000Y-86500000D02*
X192563579Y-85373496D01*
D11*
G04 #@! TO.C,C1*
X237310000Y-69313748D02*
X237310000Y-69836252D01*
X235890000Y-69313748D02*
X235890000Y-69836252D01*
G04 #@! TO.C,C2*
X239836252Y-67690000D02*
X239313748Y-67690000D01*
X239836252Y-69110000D02*
X239313748Y-69110000D01*
G04 #@! TO.C,C3*
X231313748Y-62510000D02*
X231836252Y-62510000D01*
X231313748Y-61090000D02*
X231836252Y-61090000D01*
G04 #@! TO.C,C4*
X202690000Y-47513748D02*
X202690000Y-48036252D01*
X204110000Y-47513748D02*
X204110000Y-48036252D01*
G04 #@! TO.C,C5*
X212110000Y-47713748D02*
X212110000Y-48236252D01*
X210690000Y-47713748D02*
X210690000Y-48236252D01*
G04 #@! TO.C,C6*
X237710000Y-73836252D02*
X237710000Y-73313748D01*
X236290000Y-73836252D02*
X236290000Y-73313748D01*
G04 #@! TO.C,C7*
X217363748Y-46090000D02*
X217886252Y-46090000D01*
X217363748Y-47510000D02*
X217886252Y-47510000D01*
G04 #@! TO.C,C8*
X219113748Y-48290000D02*
X219636252Y-48290000D01*
X219113748Y-49710000D02*
X219636252Y-49710000D01*
G04 #@! TO.C,C9*
X223686252Y-50290000D02*
X223163748Y-50290000D01*
X223686252Y-51710000D02*
X223163748Y-51710000D01*
G04 #@! TO.C,C10*
X223686252Y-53710000D02*
X223163748Y-53710000D01*
X223686252Y-52290000D02*
X223163748Y-52290000D01*
G04 #@! TO.C,FB1*
X219636252Y-50290000D02*
X219113748Y-50290000D01*
X219636252Y-51710000D02*
X219113748Y-51710000D01*
G04 #@! TO.C,L1*
X215313748Y-48290000D02*
X215836252Y-48290000D01*
X215313748Y-49710000D02*
X215836252Y-49710000D01*
G04 #@! TO.C,R2*
X231313748Y-63090000D02*
X231836252Y-63090000D01*
X231313748Y-64510000D02*
X231836252Y-64510000D01*
G04 #@! TO.C,R3*
X232310000Y-68261252D02*
X232310000Y-67738748D01*
X230890000Y-68261252D02*
X230890000Y-67738748D01*
G04 #@! TO.C,R4*
X232310000Y-72513748D02*
X232310000Y-73036252D01*
X230890000Y-72513748D02*
X230890000Y-73036252D01*
G04 #@! TO.C,R6*
X237510000Y-58163748D02*
X237510000Y-58686252D01*
X236090000Y-58163748D02*
X236090000Y-58686252D01*
D12*
G04 #@! TO.C,U1*
X241500999Y-70914300D02*
X241500999Y-72920900D01*
X240187860Y-72920900D02*
X239512138Y-72920900D01*
X238198999Y-72920900D02*
X238198999Y-70914300D01*
G04 #@! TO.C,C1*
D13*
X235307142Y-69408333D02*
X235354761Y-69360714D01*
X235402380Y-69217857D01*
X235402380Y-69122619D01*
X235354761Y-68979761D01*
X235259523Y-68884523D01*
X235164285Y-68836904D01*
X234973809Y-68789285D01*
X234830952Y-68789285D01*
X234640476Y-68836904D01*
X234545238Y-68884523D01*
X234450000Y-68979761D01*
X234402380Y-69122619D01*
X234402380Y-69217857D01*
X234450000Y-69360714D01*
X234497619Y-69408333D01*
X235402380Y-70360714D02*
X235402380Y-69789285D01*
X235402380Y-70075000D02*
X234402380Y-70075000D01*
X234545238Y-69979761D01*
X234640476Y-69884523D01*
X234688095Y-69789285D01*
G04 #@! TO.C,C2*
X239741666Y-67107142D02*
X239789285Y-67154761D01*
X239932142Y-67202380D01*
X240027380Y-67202380D01*
X240170238Y-67154761D01*
X240265476Y-67059523D01*
X240313095Y-66964285D01*
X240360714Y-66773809D01*
X240360714Y-66630952D01*
X240313095Y-66440476D01*
X240265476Y-66345238D01*
X240170238Y-66250000D01*
X240027380Y-66202380D01*
X239932142Y-66202380D01*
X239789285Y-66250000D01*
X239741666Y-66297619D01*
X239360714Y-66297619D02*
X239313095Y-66250000D01*
X239217857Y-66202380D01*
X238979761Y-66202380D01*
X238884523Y-66250000D01*
X238836904Y-66297619D01*
X238789285Y-66392857D01*
X238789285Y-66488095D01*
X238836904Y-66630952D01*
X239408333Y-67202380D01*
X238789285Y-67202380D01*
G04 #@! TO.C,C3*
X231766666Y-60557142D02*
X231814285Y-60604761D01*
X231957142Y-60652380D01*
X232052380Y-60652380D01*
X232195238Y-60604761D01*
X232290476Y-60509523D01*
X232338095Y-60414285D01*
X232385714Y-60223809D01*
X232385714Y-60080952D01*
X232338095Y-59890476D01*
X232290476Y-59795238D01*
X232195238Y-59700000D01*
X232052380Y-59652380D01*
X231957142Y-59652380D01*
X231814285Y-59700000D01*
X231766666Y-59747619D01*
X231433333Y-59652380D02*
X230814285Y-59652380D01*
X231147619Y-60033333D01*
X231004761Y-60033333D01*
X230909523Y-60080952D01*
X230861904Y-60128571D01*
X230814285Y-60223809D01*
X230814285Y-60461904D01*
X230861904Y-60557142D01*
X230909523Y-60604761D01*
X231004761Y-60652380D01*
X231290476Y-60652380D01*
X231385714Y-60604761D01*
X231433333Y-60557142D01*
G04 #@! TO.C,C4*
X202107142Y-47608333D02*
X202154761Y-47560714D01*
X202202380Y-47417857D01*
X202202380Y-47322619D01*
X202154761Y-47179761D01*
X202059523Y-47084523D01*
X201964285Y-47036904D01*
X201773809Y-46989285D01*
X201630952Y-46989285D01*
X201440476Y-47036904D01*
X201345238Y-47084523D01*
X201250000Y-47179761D01*
X201202380Y-47322619D01*
X201202380Y-47417857D01*
X201250000Y-47560714D01*
X201297619Y-47608333D01*
X201535714Y-48465476D02*
X202202380Y-48465476D01*
X201154761Y-48227380D02*
X201869047Y-47989285D01*
X201869047Y-48608333D01*
G04 #@! TO.C,C5*
X210107142Y-47808333D02*
X210154761Y-47760714D01*
X210202380Y-47617857D01*
X210202380Y-47522619D01*
X210154761Y-47379761D01*
X210059523Y-47284523D01*
X209964285Y-47236904D01*
X209773809Y-47189285D01*
X209630952Y-47189285D01*
X209440476Y-47236904D01*
X209345238Y-47284523D01*
X209250000Y-47379761D01*
X209202380Y-47522619D01*
X209202380Y-47617857D01*
X209250000Y-47760714D01*
X209297619Y-47808333D01*
X209202380Y-48713095D02*
X209202380Y-48236904D01*
X209678571Y-48189285D01*
X209630952Y-48236904D01*
X209583333Y-48332142D01*
X209583333Y-48570238D01*
X209630952Y-48665476D01*
X209678571Y-48713095D01*
X209773809Y-48760714D01*
X210011904Y-48760714D01*
X210107142Y-48713095D01*
X210154761Y-48665476D01*
X210202380Y-48570238D01*
X210202380Y-48332142D01*
X210154761Y-48236904D01*
X210107142Y-48189285D01*
G04 #@! TO.C,C6*
X239007142Y-73408333D02*
X239054761Y-73360714D01*
X239102380Y-73217857D01*
X239102380Y-73122619D01*
X239054761Y-72979761D01*
X238959523Y-72884523D01*
X238864285Y-72836904D01*
X238673809Y-72789285D01*
X238530952Y-72789285D01*
X238340476Y-72836904D01*
X238245238Y-72884523D01*
X238150000Y-72979761D01*
X238102380Y-73122619D01*
X238102380Y-73217857D01*
X238150000Y-73360714D01*
X238197619Y-73408333D01*
X238102380Y-74265476D02*
X238102380Y-74075000D01*
X238150000Y-73979761D01*
X238197619Y-73932142D01*
X238340476Y-73836904D01*
X238530952Y-73789285D01*
X238911904Y-73789285D01*
X239007142Y-73836904D01*
X239054761Y-73884523D01*
X239102380Y-73979761D01*
X239102380Y-74170238D01*
X239054761Y-74265476D01*
X239007142Y-74313095D01*
X238911904Y-74360714D01*
X238673809Y-74360714D01*
X238578571Y-74313095D01*
X238530952Y-74265476D01*
X238483333Y-74170238D01*
X238483333Y-73979761D01*
X238530952Y-73884523D01*
X238578571Y-73836904D01*
X238673809Y-73789285D01*
G04 #@! TO.C,C7*
X217766666Y-45557142D02*
X217814285Y-45604761D01*
X217957142Y-45652380D01*
X218052380Y-45652380D01*
X218195238Y-45604761D01*
X218290476Y-45509523D01*
X218338095Y-45414285D01*
X218385714Y-45223809D01*
X218385714Y-45080952D01*
X218338095Y-44890476D01*
X218290476Y-44795238D01*
X218195238Y-44700000D01*
X218052380Y-44652380D01*
X217957142Y-44652380D01*
X217814285Y-44700000D01*
X217766666Y-44747619D01*
X217433333Y-44652380D02*
X216766666Y-44652380D01*
X217195238Y-45652380D01*
G04 #@! TO.C,C8*
X220566666Y-47757142D02*
X220614285Y-47804761D01*
X220757142Y-47852380D01*
X220852380Y-47852380D01*
X220995238Y-47804761D01*
X221090476Y-47709523D01*
X221138095Y-47614285D01*
X221185714Y-47423809D01*
X221185714Y-47280952D01*
X221138095Y-47090476D01*
X221090476Y-46995238D01*
X220995238Y-46900000D01*
X220852380Y-46852380D01*
X220757142Y-46852380D01*
X220614285Y-46900000D01*
X220566666Y-46947619D01*
X219995238Y-47280952D02*
X220090476Y-47233333D01*
X220138095Y-47185714D01*
X220185714Y-47090476D01*
X220185714Y-47042857D01*
X220138095Y-46947619D01*
X220090476Y-46900000D01*
X219995238Y-46852380D01*
X219804761Y-46852380D01*
X219709523Y-46900000D01*
X219661904Y-46947619D01*
X219614285Y-47042857D01*
X219614285Y-47090476D01*
X219661904Y-47185714D01*
X219709523Y-47233333D01*
X219804761Y-47280952D01*
X219995238Y-47280952D01*
X220090476Y-47328571D01*
X220138095Y-47376190D01*
X220185714Y-47471428D01*
X220185714Y-47661904D01*
X220138095Y-47757142D01*
X220090476Y-47804761D01*
X219995238Y-47852380D01*
X219804761Y-47852380D01*
X219709523Y-47804761D01*
X219661904Y-47757142D01*
X219614285Y-47661904D01*
X219614285Y-47471428D01*
X219661904Y-47376190D01*
X219709523Y-47328571D01*
X219804761Y-47280952D01*
G04 #@! TO.C,C9*
X223591666Y-49707142D02*
X223639285Y-49754761D01*
X223782142Y-49802380D01*
X223877380Y-49802380D01*
X224020238Y-49754761D01*
X224115476Y-49659523D01*
X224163095Y-49564285D01*
X224210714Y-49373809D01*
X224210714Y-49230952D01*
X224163095Y-49040476D01*
X224115476Y-48945238D01*
X224020238Y-48850000D01*
X223877380Y-48802380D01*
X223782142Y-48802380D01*
X223639285Y-48850000D01*
X223591666Y-48897619D01*
X223115476Y-49802380D02*
X222925000Y-49802380D01*
X222829761Y-49754761D01*
X222782142Y-49707142D01*
X222686904Y-49564285D01*
X222639285Y-49373809D01*
X222639285Y-48992857D01*
X222686904Y-48897619D01*
X222734523Y-48850000D01*
X222829761Y-48802380D01*
X223020238Y-48802380D01*
X223115476Y-48850000D01*
X223163095Y-48897619D01*
X223210714Y-48992857D01*
X223210714Y-49230952D01*
X223163095Y-49326190D01*
X223115476Y-49373809D01*
X223020238Y-49421428D01*
X222829761Y-49421428D01*
X222734523Y-49373809D01*
X222686904Y-49326190D01*
X222639285Y-49230952D01*
G04 #@! TO.C,C10*
X224042857Y-54957142D02*
X224090476Y-55004761D01*
X224233333Y-55052380D01*
X224328571Y-55052380D01*
X224471428Y-55004761D01*
X224566666Y-54909523D01*
X224614285Y-54814285D01*
X224661904Y-54623809D01*
X224661904Y-54480952D01*
X224614285Y-54290476D01*
X224566666Y-54195238D01*
X224471428Y-54100000D01*
X224328571Y-54052380D01*
X224233333Y-54052380D01*
X224090476Y-54100000D01*
X224042857Y-54147619D01*
X223090476Y-55052380D02*
X223661904Y-55052380D01*
X223376190Y-55052380D02*
X223376190Y-54052380D01*
X223471428Y-54195238D01*
X223566666Y-54290476D01*
X223661904Y-54338095D01*
X222471428Y-54052380D02*
X222376190Y-54052380D01*
X222280952Y-54100000D01*
X222233333Y-54147619D01*
X222185714Y-54242857D01*
X222138095Y-54433333D01*
X222138095Y-54671428D01*
X222185714Y-54861904D01*
X222233333Y-54957142D01*
X222280952Y-55004761D01*
X222376190Y-55052380D01*
X222471428Y-55052380D01*
X222566666Y-55004761D01*
X222614285Y-54957142D01*
X222661904Y-54861904D01*
X222709523Y-54671428D01*
X222709523Y-54433333D01*
X222661904Y-54242857D01*
X222614285Y-54147619D01*
X222566666Y-54100000D01*
X222471428Y-54052380D01*
G04 #@! TO.C,FB1*
X220208333Y-52528571D02*
X220541666Y-52528571D01*
X220541666Y-53052380D02*
X220541666Y-52052380D01*
X220065476Y-52052380D01*
X219351190Y-52528571D02*
X219208333Y-52576190D01*
X219160714Y-52623809D01*
X219113095Y-52719047D01*
X219113095Y-52861904D01*
X219160714Y-52957142D01*
X219208333Y-53004761D01*
X219303571Y-53052380D01*
X219684523Y-53052380D01*
X219684523Y-52052380D01*
X219351190Y-52052380D01*
X219255952Y-52100000D01*
X219208333Y-52147619D01*
X219160714Y-52242857D01*
X219160714Y-52338095D01*
X219208333Y-52433333D01*
X219255952Y-52480952D01*
X219351190Y-52528571D01*
X219684523Y-52528571D01*
X218160714Y-53052380D02*
X218732142Y-53052380D01*
X218446428Y-53052380D02*
X218446428Y-52052380D01*
X218541666Y-52195238D01*
X218636904Y-52290476D01*
X218732142Y-52338095D01*
G04 #@! TO.C,L1*
X215741666Y-51102380D02*
X216217857Y-51102380D01*
X216217857Y-50102380D01*
X214884523Y-51102380D02*
X215455952Y-51102380D01*
X215170238Y-51102380D02*
X215170238Y-50102380D01*
X215265476Y-50245238D01*
X215360714Y-50340476D01*
X215455952Y-50388095D01*
G04 #@! TO.C,R2*
X231741666Y-65902380D02*
X232075000Y-65426190D01*
X232313095Y-65902380D02*
X232313095Y-64902380D01*
X231932142Y-64902380D01*
X231836904Y-64950000D01*
X231789285Y-64997619D01*
X231741666Y-65092857D01*
X231741666Y-65235714D01*
X231789285Y-65330952D01*
X231836904Y-65378571D01*
X231932142Y-65426190D01*
X232313095Y-65426190D01*
X231360714Y-64997619D02*
X231313095Y-64950000D01*
X231217857Y-64902380D01*
X230979761Y-64902380D01*
X230884523Y-64950000D01*
X230836904Y-64997619D01*
X230789285Y-65092857D01*
X230789285Y-65188095D01*
X230836904Y-65330952D01*
X231408333Y-65902380D01*
X230789285Y-65902380D01*
G04 #@! TO.C,R3*
X233702380Y-67833333D02*
X233226190Y-67500000D01*
X233702380Y-67261904D02*
X232702380Y-67261904D01*
X232702380Y-67642857D01*
X232750000Y-67738095D01*
X232797619Y-67785714D01*
X232892857Y-67833333D01*
X233035714Y-67833333D01*
X233130952Y-67785714D01*
X233178571Y-67738095D01*
X233226190Y-67642857D01*
X233226190Y-67261904D01*
X232702380Y-68166666D02*
X232702380Y-68785714D01*
X233083333Y-68452380D01*
X233083333Y-68595238D01*
X233130952Y-68690476D01*
X233178571Y-68738095D01*
X233273809Y-68785714D01*
X233511904Y-68785714D01*
X233607142Y-68738095D01*
X233654761Y-68690476D01*
X233702380Y-68595238D01*
X233702380Y-68309523D01*
X233654761Y-68214285D01*
X233607142Y-68166666D01*
G04 #@! TO.C,R4*
X230402380Y-72608333D02*
X229926190Y-72275000D01*
X230402380Y-72036904D02*
X229402380Y-72036904D01*
X229402380Y-72417857D01*
X229450000Y-72513095D01*
X229497619Y-72560714D01*
X229592857Y-72608333D01*
X229735714Y-72608333D01*
X229830952Y-72560714D01*
X229878571Y-72513095D01*
X229926190Y-72417857D01*
X229926190Y-72036904D01*
X229735714Y-73465476D02*
X230402380Y-73465476D01*
X229354761Y-73227380D02*
X230069047Y-72989285D01*
X230069047Y-73608333D01*
G04 #@! TO.C,R6*
X235602380Y-58258333D02*
X235126190Y-57925000D01*
X235602380Y-57686904D02*
X234602380Y-57686904D01*
X234602380Y-58067857D01*
X234650000Y-58163095D01*
X234697619Y-58210714D01*
X234792857Y-58258333D01*
X234935714Y-58258333D01*
X235030952Y-58210714D01*
X235078571Y-58163095D01*
X235126190Y-58067857D01*
X235126190Y-57686904D01*
X234602380Y-59115476D02*
X234602380Y-58925000D01*
X234650000Y-58829761D01*
X234697619Y-58782142D01*
X234840476Y-58686904D01*
X235030952Y-58639285D01*
X235411904Y-58639285D01*
X235507142Y-58686904D01*
X235554761Y-58734523D01*
X235602380Y-58829761D01*
X235602380Y-59020238D01*
X235554761Y-59115476D01*
X235507142Y-59163095D01*
X235411904Y-59210714D01*
X235173809Y-59210714D01*
X235078571Y-59163095D01*
X235030952Y-59115476D01*
X234983333Y-59020238D01*
X234983333Y-58829761D01*
X235030952Y-58734523D01*
X235078571Y-58686904D01*
X235173809Y-58639285D01*
G04 #@! TO.C,U1*
X236702379Y-71155695D02*
X237511903Y-71155695D01*
X237607141Y-71203314D01*
X237654760Y-71250933D01*
X237702379Y-71346171D01*
X237702379Y-71536647D01*
X237654760Y-71631885D01*
X237607141Y-71679504D01*
X237511903Y-71727123D01*
X236702379Y-71727123D01*
X237702379Y-72727123D02*
X237702379Y-72155695D01*
X237702379Y-72441409D02*
X236702379Y-72441409D01*
X236845237Y-72346171D01*
X236940475Y-72250933D01*
X236988094Y-72155695D01*
G04 #@! TO.C,U4*
D14*
X207780952Y-44795790D02*
X207780952Y-45200552D01*
X207757142Y-45248171D01*
X207733333Y-45271980D01*
X207685714Y-45295790D01*
X207590476Y-45295790D01*
X207542857Y-45271980D01*
X207519047Y-45248171D01*
X207495238Y-45200552D01*
X207495238Y-44795790D01*
X207042857Y-44962457D02*
X207042857Y-45295790D01*
X207161904Y-44771980D02*
X207280952Y-45129123D01*
X206971428Y-45129123D01*
X208923333Y-48686190D02*
X208590000Y-49186190D01*
X208590000Y-48686190D02*
X208923333Y-49186190D01*
X208113809Y-49138571D02*
X208137619Y-49162380D01*
X208209047Y-49186190D01*
X208256666Y-49186190D01*
X208328095Y-49162380D01*
X208375714Y-49114761D01*
X208399523Y-49067142D01*
X208423333Y-48971904D01*
X208423333Y-48900476D01*
X208399523Y-48805238D01*
X208375714Y-48757619D01*
X208328095Y-48710000D01*
X208256666Y-48686190D01*
X208209047Y-48686190D01*
X208137619Y-48710000D01*
X208113809Y-48733809D01*
X207661428Y-49186190D02*
X207899523Y-49186190D01*
X207899523Y-48686190D01*
X207518571Y-48733809D02*
X207494761Y-48710000D01*
X207447142Y-48686190D01*
X207328095Y-48686190D01*
X207280476Y-48710000D01*
X207256666Y-48733809D01*
X207232857Y-48781428D01*
X207232857Y-48829047D01*
X207256666Y-48900476D01*
X207542380Y-49186190D01*
X207232857Y-49186190D01*
X206923333Y-48686190D02*
X206875714Y-48686190D01*
X206828095Y-48710000D01*
X206804285Y-48733809D01*
X206780476Y-48781428D01*
X206756666Y-48876666D01*
X206756666Y-48995714D01*
X206780476Y-49090952D01*
X206804285Y-49138571D01*
X206828095Y-49162380D01*
X206875714Y-49186190D01*
X206923333Y-49186190D01*
X206970952Y-49162380D01*
X206994761Y-49138571D01*
X207018571Y-49090952D01*
X207042380Y-48995714D01*
X207042380Y-48876666D01*
X207018571Y-48781428D01*
X206994761Y-48733809D01*
X206970952Y-48710000D01*
X206923333Y-48686190D01*
X206328095Y-48686190D02*
X206423333Y-48686190D01*
X206470952Y-48710000D01*
X206494761Y-48733809D01*
X206542380Y-48805238D01*
X206566190Y-48900476D01*
X206566190Y-49090952D01*
X206542380Y-49138571D01*
X206518571Y-49162380D01*
X206470952Y-49186190D01*
X206375714Y-49186190D01*
X206328095Y-49162380D01*
X206304285Y-49138571D01*
X206280476Y-49090952D01*
X206280476Y-48971904D01*
X206304285Y-48924285D01*
X206328095Y-48900476D01*
X206375714Y-48876666D01*
X206470952Y-48876666D01*
X206518571Y-48900476D01*
X206542380Y-48924285D01*
X206566190Y-48971904D01*
X205899523Y-48924285D02*
X205828095Y-48948095D01*
X205804285Y-48971904D01*
X205780476Y-49019523D01*
X205780476Y-49090952D01*
X205804285Y-49138571D01*
X205828095Y-49162380D01*
X205875714Y-49186190D01*
X206066190Y-49186190D01*
X206066190Y-48686190D01*
X205899523Y-48686190D01*
X205851904Y-48710000D01*
X205828095Y-48733809D01*
X205804285Y-48781428D01*
X205804285Y-48829047D01*
X205828095Y-48876666D01*
X205851904Y-48900476D01*
X205899523Y-48924285D01*
X206066190Y-48924285D01*
G04 #@! TD*
M02*
